#N canvas 549 82 861 692 10;
#X obj 53 350 dac~;
#X obj 100 178 tgl 15 0 empty empty listen_and_destroy 17 7 0 10 -262144
-1 -1 0 1;
#X obj 161 256 bng 15 250 50 0 empty empty destruction_indicator 17
7 0 10 -262144 -1 -1;
#X floatatom 284 76 5 0 0 0 - - -;
#X obj 100 109 change;
#X obj 152 354 line;
#X obj 168 286 t b b;
#X obj 154 396 i;
#X floatatom 154 418 5 0 0 0 - - -;
#X msg 208 316 2;
#X msg 151 317 0 300;
#X obj 337 233 loadbang;
#X obj 284 26 r bela_digitalIn11;
#X msg 340 264 in 11;
#X msg 340 264 in 11;
#X obj 346 294 s bela_setDigital @hv_param;
#X obj 96 224 ys.memory_loss;
#X msg 400 264 out 12;
#X obj 156 449 s bela_digitalOut12;
#X obj 127 145 print playstop;
#X floatatom 59 213 5 0 0 0 - - -;
#X obj 39 304 *~ 4;
#X obj 284 157 bng 15 250 50 0 empty empty record_new_sound 17 7 0
10 -262144 -1 -1;
#X obj 284 129 sel 1 0;
#X obj 284 102 change;
#X obj 284 53 bela_debounce;
#X msg 457 264 in 13;
#X obj 99 64 r bela_digitalIn13;
#X obj 99 85 bela_debounce;
#X obj 78 301 *~ 4;
#X obj 328 490 writesf~ 2;
#X obj 335 369 sel 1;
#X msg 333 441 start;
#X msg 382 441 stop;
#X obj 330 403 t f b;
#X text 374 367 connect this to listen_destroy if you want a recording
;
#X msg 445 442 open destroyed_uke.wav;
#X connect 1 0 16 0;
#X connect 2 0 6 0;
#X connect 3 0 24 0;
#X connect 4 0 1 0;
#X connect 4 0 19 0;
#X connect 5 0 7 0;
#X connect 6 0 10 0;
#X connect 6 1 9 0;
#X connect 7 0 8 0;
#X connect 8 0 18 0;
#X connect 9 0 5 0;
#X connect 10 0 5 0;
#X connect 11 0 13 0;
#X connect 11 0 17 0;
#X connect 11 0 26 0;
#X connect 12 0 25 0;
#X connect 13 0 15 0;
#X connect 16 0 21 0;
#X connect 16 0 30 0;
#X connect 16 1 29 0;
#X connect 16 1 30 1;
#X connect 16 2 2 0;
#X connect 17 0 15 0;
#X connect 20 0 21 1;
#X connect 21 0 0 0;
#X connect 22 0 16 3;
#X connect 23 0 22 0;
#X connect 24 0 23 0;
#X connect 25 0 3 0;
#X connect 26 0 15 0;
#X connect 27 0 28 0;
#X connect 28 0 4 0;
#X connect 29 0 0 1;
#X connect 31 0 34 0;
#X connect 31 1 33 0;
#X connect 32 0 30 0;
#X connect 33 0 30 0;
#X connect 34 0 32 0;
#X connect 34 1 36 0;
#X connect 36 0 30 0;
