#N canvas 630 82 861 692 10;
#X obj 80 507 dac~;
#X obj 98 367 tgl 15 0 empty empty listen_and_destroy 17 7 0 10 -262144
-1 -1 0 1;
#X obj 159 445 bng 15 250 50 0 empty empty destruction_indicator 17
7 0 10 -262144 -1 -1;
#X floatatom 255 70 5 0 0 0 - - -;
#X obj 250 227 change;
#X obj 464 304 print;
#X floatatom 546 312 5 0 0 0 - - -;
#X obj 150 543 line;
#X obj 166 475 t b b;
#X obj 152 585 i;
#X floatatom 152 607 5 0 0 0 - - -;
#X msg 206 505 2;
#X msg 149 506 0 300;
#X obj 553 350 print led;
#X obj 398 64 loadbang;
#X obj 179 18 r bela_digitalIn11;
#X msg 443 234 in 11;
#X obj 250 259 sel 1 0;
#X obj 398 64 loadbang;
#X msg 443 234 in 11;
#X obj 449 264 s bela_setDigital @hv_param;
#X obj 99 407 ys.memory_loss;
#X msg 503 234 out 12;
#X obj 154 638 s bela_digitalOut12;
#X obj 92 267 print playstop;
#X obj 193 102 adc~ 3;
#X floatatom 218 165 5 0 0 0 - - -;
#X obj 229 191 > 0.1;
#X obj 218 144 ys.snapshot 50;
#X floatatom 57 402 5 0 0 0 - - -;
#X obj 69 452 *~ 4;
#X obj 264 389 bng 15 250 50 0 empty empty record_new_sound 17 7 0
10 -262144 -1 -1;
#X obj 321 108 sel 1 0;
#X obj 322 81 change;
#X obj 412 509 bela_debounce;
#X obj 415 490 tgl 15 0 empty empty empty 17 7 0 10 -262144 -1 -1 0
1;
#X obj 414 540 tgl 15 0 empty empty empty 17 7 0 10 -262144 -1 -1 0
1;
#X obj 292 52 bela_debounce;
#X msg 560 234 in 13;
#X obj 48 81 r bela_digitalIn13;
#X obj 48 102 bela_debounce;
#X connect 1 0 21 0;
#X connect 2 0 8 0;
#X connect 3 0 33 0;
#X connect 4 0 17 0;
#X connect 4 0 1 0;
#X connect 4 0 24 0;
#X connect 7 0 9 0;
#X connect 8 0 12 0;
#X connect 8 1 11 0;
#X connect 9 0 10 0;
#X connect 10 0 23 0;
#X connect 11 0 7 0;
#X connect 12 0 7 0;
#X connect 14 0 16 0;
#X connect 14 0 22 0;
#X connect 14 0 38 0;
#X connect 15 0 37 0;
#X connect 16 0 20 0;
#X connect 18 0 19 0;
#X connect 21 0 30 0;
#X connect 21 1 30 0;
#X connect 21 2 2 0;
#X connect 22 0 20 0;
#X connect 25 0 28 0;
#X connect 26 0 27 0;
#X connect 28 0 26 0;
#X connect 29 0 30 1;
#X connect 30 0 0 0;
#X connect 30 0 0 1;
#X connect 31 0 21 3;
#X connect 32 0 31 0;
#X connect 33 0 32 0;
#X connect 34 0 36 0;
#X connect 35 0 34 0;
#X connect 37 0 3 0;
#X connect 38 0 20 0;
#X connect 39 0 40 0;
#X connect 40 0 4 0;
